<?xml version="1.0" encoding="UTF-8"?>
<svg id="Camada_2" data-name="Camada 2" xmlns="http://www.w3.org/2000/svg" viewBox="0 0 942.95 196.61">
  <defs>
    <style>
      .cls-1 {
        fill: #fdfdfb;
      }

      .cls-2 {
        fill: #fcaf27;
      }

      .cls-3 {
        fill: #eb6295;
      }

      .cls-4 {
        fill: #d64f7a;
      }

      .cls-5 {
        fill: #e3e3c8;
      }

      .cls-6 {
        fill: #fff;
        font-family: Poppins;
        font-size: 91.91px;
        font-weight: 500;
        letter-spacing: -.04em;
      }

      .cls-7 {
        fill: #261d1e;
      }
    </style>
  </defs>
  <g id="Layer_1" data-name="Layer 1">
    <g>
      <g>
        <path class="cls-2" d="M150.43,118.58c.27-.46.28-1.11.03-1.68l-5.24-12.89c-.24-.59-.78-.99-1.41-1h-4.07s-3.77,0-3.77,0c-.62,0-1.22.32-1.47.91l-5.48,12.9c-.19.48-.18,1.14.08,1.6,1.06,1.79,3.49,6.38,6.4,11.27,5.15,8.65,3.33,8.65,8.25.07l6.68-11.18Z"/>
        <g>
          <path class="cls-4" d="M130.08,100.79c-.94-2.81-2.09-5.58-3.41-8.27-2.65-5.37-5.99-10.4-9.91-14.98-8.04-8.94-18.54-15.78-30.32-19.57l-9.01-2.41c-3.14-.71-6.28-1.34-9.41-2.16-6.26-1.51-12.48-3.26-18.55-5.52-6.05-2.26-12.02-5.03-17.11-9.11-5.17-4-8.89-9.41-12.04-14.93,3.53,5.3,7.59,10.36,12.85,13.84,5.18,3.59,11.12,5.86,17.16,7.64,6.05,1.77,12.26,3.06,18.52,4.11,3.11.58,6.27.99,9.4,1.47l9.67,1.86c12.82,3.14,25,9.79,34.71,19.21,4.75,4.81,8.92,10.21,12.34,16.08,1.71,2.94,4.7,9.37,4.74,9.46-8.73-32.14-27.74-76.11-62.87-78.9l.23,17.29-1.88-2.83c-6.46-9.71-16.75-16.16-28.29-17.88C26.26,12.12,13.94,8.01,6.64,1.09,4-1.41-.33.68.02,4.3c2.42,24.44,13.07,70.22,59.13,67.59,39.12-2.22,60,14.43,71.62,31.02-.22-.71-.43-1.42-.69-2.12Z"/>
          <path class="cls-4" d="M149.36,100.79c.94-2.81,2.1-5.58,3.41-8.27,2.66-5.37,5.99-10.4,9.91-14.98,8.03-8.94,18.54-15.78,30.31-19.57l9.01-2.41c3.14-.71,6.28-1.34,9.41-2.16,6.25-1.51,12.48-3.26,18.55-5.52,6.05-2.26,12.02-5.03,17.11-9.11,5.17-4,8.89-9.41,12.04-14.93-3.52,5.3-7.59,10.36-12.85,13.84-5.18,3.59-11.12,5.86-17.16,7.64-6.05,1.77-12.26,3.06-18.51,4.11-3.11.58-6.27.99-9.4,1.47l-9.67,1.86c-12.82,3.14-25,9.79-34.72,19.21-4.75,4.81-8.92,10.21-12.34,16.08-1.71,2.94-4.69,9.37-4.73,9.46,8.73-32.14,27.74-76.11,62.86-78.9l-.23,17.29,1.89-2.83c6.46-9.71,16.75-16.16,28.29-17.88,20.65-3.08,32.97-7.19,40.27-14.11,2.64-2.5,6.97-.41,6.62,3.2-2.41,24.44-13.08,70.22-59.14,67.59-39.12-2.22-60,14.43-71.62,31.02.22-.71.44-1.42.7-2.12Z"/>
        </g>
        <path class="cls-2" d="M139.72,92.2c-3.65-26.01-18.12-82.23-62.87-73.58,43.76,3.45,60.34,70.81,62.87,78.9,0,0,0-.03,0-.05v.05c2.52-8.09,19.1-75.45,62.86-78.9-44.75-8.66-59.22,47.57-62.86,73.58Z"/>
      </g>
      <g>
        <path class="cls-3" d="M186.41,84.69c-4.42-.7-9.47.46-12.6,2.11-2.08,1.1-3.87,2.52-5.39,4.16.7-.53,1.43-1.02,2.23-1.44,7.94-4.2,17.79-1.16,21.99,6.78,4.2,7.94,1.16,17.79-6.78,21.99-7.48,3.95-16.63,1.49-21.18-5.43.21.48.42.96.66,1.43,5.25,9.93,17.55,13.72,27.48,8.48,8.94-4.72,12.88-15.16,9.76-24.43-.33-1.58-4.98-12.23-16.16-13.63Z"/>
        <circle class="cls-7" cx="178.92" cy="104.26" r="13.24"/>
        <path class="cls-1" d="M180.86,94.85c1.2-1.37,3.09-1.92,4.84-1.41s3.04,1.99,3.32,3.79c.28,1.8-.51,3.6-2.02,4.62-1.96,1.31-4.59.97-6.14-.8-1.56-1.77-1.55-4.42,0-6.19Z"/>
        <circle class="cls-5" cx="172.67" cy="111.27" r="2.87"/>
      </g>
      <g>
        <circle class="cls-7" cx="101.61" cy="104.26" r="13.24"/>
        <path class="cls-1" d="M99.66,101.05c-1.56,1.77-4.18,2.11-6.14.8-1.51-1.02-2.3-2.81-2.02-4.62.28-1.8,1.57-3.28,3.32-3.79s3.63.04,4.84,1.41c1.56,1.77,1.56,4.42,0,6.19Z"/>
        <circle class="cls-5" cx="107.85" cy="111.27" r="2.87"/>
        <path class="cls-3" d="M93.71,84.76c4.42-.7,9.47.46,12.6,2.11,2.08,1.1,3.87,2.52,5.39,4.16-.7-.53-1.43-1.02-2.23-1.44-7.94-4.2-17.79-1.16-21.99,6.78-4.2,7.94-1.16,17.79,6.78,21.99,7.48,3.95,16.63,1.49,21.18-5.43-.21.48-.42.96-.66,1.43-5.25,9.93-17.55,13.72-27.48,8.48-8.94-4.72-12.88-15.16-9.76-24.43.33-1.58,4.98-12.23,16.16-13.63Z"/>
      </g>
    </g>
    <text class="cls-6" transform="translate(292.93 109.12)"><tspan x="0" y="0">Aldeia Singular</tspan></text>
  </g>
</svg>